<?xml version="1.0" encoding="UTF-8"?>
<svg width="512px" height="512px" viewBox="0 0 512 512" version="1.1" xmlns="http://www.w3.org/2000/svg" xmlns:xlink="http://www.w3.org/1999/xlink">
    <!-- Generator: Sketch 64 (93537) - https://sketch.com -->
    <title>icon</title>
    <desc>Created with Sketch.</desc>
    <g id="icon" stroke="none" stroke-width="1" fill="none" fill-rule="evenodd">
        <circle id="Oval" fill="#FFFFFF" cx="250" cy="251" r="228"></circle>
        <g id="server" transform="translate(97.000000, 108.000000)" stroke="#000000" stroke-width="11.25">
            <g transform="translate(0.000000, 210.000000)">
                <rect id="Rectangle" x="5.625" y="5.625" width="294.101695" height="71.4257813" rx="22.5"></rect>
                <ellipse id="Oval" cx="49.5940337" cy="41.9518197" rx="12.8190621" ry="12.178943"></ellipse>
                <line x1="97.5485952" y1="40.9286046" x2="146.732761" y2="41.3378906" id="Line" stroke-linecap="round"></line>
                <g id="Group" transform="translate(177.882732, 29.468595)" stroke-linecap="round">
                    <line x1="22.5427426" y1="4.81068971e-16" x2="22.5427426" y2="23.7385907" id="Line-Copy-2"></line>
                    <line x1="45.2904192" y1="4.29750348" x2="45.2904192" y2="23.7385907" id="Line-Copy-3"></line>
                    <line x1="67.8331618" y1="11.6646523" x2="67.6282277" y2="23.7385907" id="Line-Copy-4"></line>
                    <line x1="0.204934023" y1="16.1667988" x2="0.204934023" y2="23.7385907" id="Line-Copy"></line>
                    <line x1="89.9660363" y1="4.81068971e-16" x2="89.9660363" y2="23.7385907" id="Line-Copy-5"></line>
                </g>
            </g>
            <g id="server-copy" transform="translate(0.000000, 138.000000)">
                <rect id="Rectangle" x="5.625" y="5.625" width="294.101695" height="71.4257813" rx="22.5"></rect>
                <ellipse id="Oval" cx="49.5940337" cy="41.9518197" rx="12.8190621" ry="12.178943"></ellipse>
                <line x1="97.5485952" y1="40.9286046" x2="146.732761" y2="41.3378906" id="Line" stroke-linecap="round"></line>
                <g id="Group" transform="translate(176.243260, 29.468595)" stroke-linecap="round">
                    <line x1="22.5427426" y1="4.81068971e-16" x2="22.5427426" y2="23.7385907" id="Line-Copy-2"></line>
                    <line x1="45.2904192" y1="4.29750348" x2="45.2904192" y2="23.7385907" id="Line-Copy-3"></line>
                    <line x1="67.8331618" y1="11.6646523" x2="67.6282277" y2="23.7385907" id="Line-Copy-4"></line>
                    <line x1="0.204934023" y1="16.1667988" x2="0.204934023" y2="23.7385907" id="Line-Copy"></line>
                    <line x1="89.9660363" y1="4.81068971e-16" x2="89.9660363" y2="23.7385907" id="Line-Copy-5"></line>
                </g>
            </g>
            <g id="server-copy-2" transform="translate(0.000000, 66.000000)">
                <rect id="Rectangle" x="5.625" y="5.625" width="294.101695" height="71.4257813" rx="22.5"></rect>
                <ellipse id="Oval" cx="49.5940337" cy="41.9518197" rx="12.8190621" ry="12.178943"></ellipse>
                <line x1="97.5485952" y1="40.9286046" x2="146.732761" y2="41.3378906" id="Line" stroke-linecap="round"></line>
                <g id="Group-Copy" transform="translate(176.243260, 29.059309)" stroke-linecap="round">
                    <line x1="22.5427426" y1="4.81068971e-16" x2="22.5427426" y2="23.7385907" id="Line-Copy-2"></line>
                    <line x1="45.2904192" y1="4.29750348" x2="45.2904192" y2="23.7385907" id="Line-Copy-3"></line>
                    <line x1="67.8331618" y1="11.6646523" x2="67.6282277" y2="23.7385907" id="Line-Copy-4"></line>
                    <line x1="0.204934023" y1="16.1667988" x2="0.204934023" y2="23.7385907" id="Line-Copy"></line>
                    <line x1="89.9660363" y1="4.81068971e-16" x2="89.9660363" y2="23.7385907" id="Line-Copy-5"></line>
                </g>
            </g>
            <path d="M243.227411,5.625 L61.7725893,5.625 C58.7991133,5.625 54.9714602,8.65641177 52.9567817,11.8109442 L14.8763532,71.4329269 C15.3554017,71.5109398 16.0107063,71.375 16.5562108,71.375 L288.443789,71.375 C288.989245,71.375 289.644481,71.5109155 290.001082,71.2444042 L252.043218,11.8109442 C250.02854,8.65641177 246.200887,5.625 243.227411,5.625 Z" id="Rectangle"></path>
            <line x1="71" y1="24.5" x2="173.795635" y2="24.75" id="Line-Copy-6" stroke-linecap="round"></line>
            <line x1="201.303571" y1="24.625" x2="234.797619" y2="24.75" id="Line-Copy-7" stroke-linecap="round"></line>
        </g>
    </g>
</svg>